# Blender v2.72 (sub 0) OBJ File: 'Cubo3C.blend'
# www.blender.org
mtllib cubo3C.mtl
v 1.000000 0.000000 -1.000000
v 1.000000 0.000000 1.000000
v -1.000000 0.000000 1.000000
v -1.000000 0.000000 -1.000000
v 1.000000 2.000000 -0.999999
v 0.999999 2.000000 1.000001
v -1.000000 2.000000 1.000000
v -1.000000 2.000000 -1.000000
vt 0.000000 0.000000
vt 1.000000 0.000000
vt 1.000000 1.000000
vt 0.000000 1.000000
vt 1.621094 1.027344
vn 1.000000 -0.000000 0.000000
vn -1.000000 -0.000000 -0.000000
vn -0.000000 -0.000000 1.000000
vn 0.000000 0.000000 -1.000000
vn 0.000000 -1.000000 0.000000
vn 0.000000 1.000000 0.000000
usemtl Material_1
s off
f 1/1/1 5/2/1 6/3/1
f 7/2/2 8/3/2 4/4/2
f 2/4/1 1/1/1 6/3/1
f 3/1/2 7/2/2 4/4/2
usemtl Material_2
f 2/1/3 6/2/3 7/3/3
f 1/5/4 4/3/4 8/4/4
f 3/4/3 2/1/3 7/3/3
f 5/1/4 1/5/4 8/4/4
usemtl Material_3
f 2/2/5 3/3/5 4/4/5
f 8/2/6 7/3/6 6/4/6
f 1/1/5 2/2/5 4/4/5
f 5/1/6 8/2/6 6/4/6
