# Blender v2.71 (sub 0) OBJ File: 'cubo3T.blend'
# www.blender.org
mtllib cubo6T3.mtl
v 1.000000 0.000000 -1.000000
v 1.000000 0.000000 1.000000
v -1.000000 0.000000 1.000000
v -1.000000 0.000000 -1.000000
v 1.000000 2.000000 -0.999999
v 0.999999 2.000000 1.000001
v -1.000000 2.000000 1.000000
v -1.000000 2.000000 -1.000000
vt 0.666667 0.333333
vt 0.666667 0.666667
vt 0.333333 0.666667
vt 0.333333 0.333333
vt 0.333333 1.000000
vt 0.000000 1.000000
vt 0.000000 0.666667
vt 0.000000 0.333333
vt 0.000000 0.000000
vt 0.333333 0.000000
vt 0.666667 0.000000
vt 1.000000 0.000000
vt 1.000000 0.333333
vn 0.000000 0.000000 -1.000000
vn 0.000000 -1.000000 0.000000
vn -0.000000 -0.000000 1.000000
vn -1.000000 -0.000000 -0.000000
vn 1.000000 -0.000000 0.000000
vn 0.000000 1.000000 0.000000
usemtl Logo_Amarillo
s off
f 1/1/1 4/2/1 8/3/1
f 5/4/1 1/1/1 8/3/1
usemtl Logo_Verde
f 2/3/2 3/5/2 4/6/2
f 1/7/2 2/3/2 4/6/2
usemtl Logo_celeste
f 2/8/3 6/9/3 7/10/3
f 3/4/3 2/8/3 7/10/3
usemtl Logo_Rojo
f 7/1/4 8/11/4 4/12/4
f 3/13/4 7/1/4 4/12/4
usemtl Logo_Naranja
f 1/1/5 5/4/5 6/10/5
f 2/11/5 1/1/5 6/10/5
usemtl Logo_Lila
f 8/3/6 7/7/6 6/8/6
f 5/4/6 8/3/6 6/8/6
